HIERARCHY
ROOT Hips
{
	OFFSET 0.000000 0.000000 0.000000
	CHANNELS 6 Xposition Yposition Zposition Zrotation Yrotation Xrotation 
	JOINT LowerBack
	{
		OFFSET 0.000000 0.000000 0.000000
		CHANNELS 3 Zrotation Yrotation Xrotation
		JOINT Spine
		{
			OFFSET 0.028270 2.035590 -0.193380
			CHANNELS 3 Zrotation Yrotation Xrotation
			JOINT Spine1
			{
				OFFSET 0.056720 2.048850 -0.042750
				CHANNELS 3 Zrotation Yrotation Xrotation
				JOINT Neck
				{
					OFFSET 0.000000 0.000000 0.000000
					CHANNELS 3 Zrotation Yrotation Xrotation
					JOINT Neck1
					{
						OFFSET -0.054170 1.746240 0.172020
						CHANNELS 3 Zrotation Yrotation Xrotation
						JOINT Head
						{
							OFFSET 0.104070 1.761360 -0.123970
							CHANNELS 3 Zrotation Yrotation Xrotation
							End Site
							{
								OFFSET 0.000000 0.000000 0.000000
							}
						}
					}
				}
				JOINT LeftShoulder
				{
					OFFSET 0.000000 0.000000 0.000000
					CHANNELS 3 Zrotation Yrotation Xrotation
					JOINT LeftArm
					{
						OFFSET 3.362410 1.200890 -0.311210
						CHANNELS 3 Zrotation Yrotation Xrotation
						JOINT LeftForeArm
						{
							OFFSET 4.983000 -0.000000 -0.000000
							CHANNELS 3 Zrotation Yrotation Xrotation
							JOINT LeftHand
							{
								OFFSET 3.483560 -0.000000 -0.000000
								CHANNELS 3 Zrotation Yrotation Xrotation
								JOINT LeftFingerBase
								{
									OFFSET 0.000000 0.000000 0.000000
									CHANNELS 3 Zrotation Yrotation Xrotation
									JOINT LeftHandIndex1
									{
										OFFSET 0.715260 -0.000000 -0.000000
										CHANNELS 3 Zrotation Yrotation Xrotation
										End Site
										{
											OFFSET 0.000000 0.000000 0.000000
										}
									}
								}
								JOINT LThumb
								{
									OFFSET 0.000000 0.000000 0.000000
									CHANNELS 3 Zrotation Yrotation Xrotation
									End Site
									{
										OFFSET 0.000000 0.000000 0.000000
									}
								}
							}
						}
					}
				}
				JOINT RightShoulder
				{
					OFFSET 0.000000 0.000000 0.000000
					CHANNELS 3 Zrotation Yrotation Xrotation
					JOINT RightArm
					{
						OFFSET -3.136600 1.374050 -0.404650
						CHANNELS 3 Zrotation Yrotation Xrotation
						JOINT RightForeArm
						{
							OFFSET -5.241900 -0.000000 -0.000000
							CHANNELS 3 Zrotation Yrotation Xrotation
							JOINT RightHand
							{
								OFFSET -3.444170 -0.000000 -0.000000
								CHANNELS 3 Zrotation Yrotation Xrotation
								JOINT RightFingerBase
								{
									OFFSET 0.000000 0.000000 0.000000
									CHANNELS 3 Zrotation Yrotation Xrotation
									JOINT RightHandIndex1
									{
										OFFSET -0.622530 -0.000000 -0.000000
										CHANNELS 3 Zrotation Yrotation Xrotation
										End Site
										{
											OFFSET 0.000000 0.000000 0.000000
										}
									}
								}
								JOINT RThumb
								{
									OFFSET 0.000000 0.000000 0.000000
									CHANNELS 3 Zrotation Yrotation Xrotation
									End Site
									{
										OFFSET 0.000000 0.000000 0.000000
									}
								}
							}
						}
					}
				}
			}
		}
	}
}
}
MOTION
Frames: 7
Frame Time: 0.008333
7.928668 15.928168 1.188584 172.783610 -89.696758 -145.979979 6.671076 -0.632129 7.176106 0.829009 -0.756294 -1.506342 -4.688130 -0.698109 -0.374241 8.351972 -11.763792 -8.606632 -2.029240 -0.114283 -0.606598 0.000000 0.000000 0.000000 6.190393 11.025459 1.617928 -71.278104 4.066894 14.043429 -179.838526 -88.746968 -179.988325 -1.757298 2.577253 -0.034077 0.009943 0.299750 0.000000 0.000000 0.000000 0.000000 0.000000 0.000000 0.000000 4.681155 -5.542075 0.079227 67.987164 6.508306 10.445158 179.768156 86.061340 179.982413 -3.359311 6.688229 -0.214105 0.071918 -0.487146 0.000000 0.000000 0.000000 0.000000 0.000000 0.000000 0.000000 
7.774970 15.956102 1.171116 176.038854 -89.578376 -149.211239 6.397286 -0.472847 7.294133 0.790807 -0.570635 -1.478184 -4.591523 -0.515704 -0.353366 8.130671 -11.615416 -8.580964 -1.931754 -0.107088 -0.602049 0.000000 0.000000 0.000000 5.864493 11.474874 1.679197 -71.307438 4.800463 14.378619 -179.855703 -89.092632 -179.988569 -1.831556 2.595810 -0.035988 0.009690 0.290806 0.000000 0.000000 0.000000 0.000000 0.000000 0.000000 0.000000 4.037392 -5.255767 -0.001635 67.681675 6.971019 10.628689 179.746354 85.465876 179.982009 -3.341173 6.666544 -0.212425 0.070532 -0.492824 0.000000 0.000000 0.000000 0.000000 0.000000 0.000000 0.000000 
7.620313 15.983001 1.154322 179.664296 -89.486844 -152.803309 6.139839 -0.323054 7.397785 0.757482 -0.394087 -1.452942 -4.495023 -0.342742 -0.330070 7.914505 -11.478030 -8.566336 -1.833971 -0.099743 -0.600366 0.000000 0.000000 0.000000 5.548107 11.929756 1.739531 -71.314281 5.542996 14.687513 -179.873743 -89.430911 -179.988339 -1.881308 2.616247 -0.037497 0.008938 0.282043 0.000000 0.000000 0.000000 0.000000 0.000000 0.000000 0.000000 3.403552 -4.987660 -0.079975 67.341232 7.419404 10.781839 179.726349 84.892486 179.981576 -3.331628 6.643914 -0.211246 0.069352 -0.498148 0.000000 0.000000 0.000000 0.000000 0.000000 0.000000 0.000000 
7.464395 16.008664 1.138202 -176.380326 -89.425954 -156.713470 5.897719 -0.185010 7.482160 0.728974 -0.228986 -1.430943 -4.398293 -0.181463 -0.301487 7.704872 -11.355172 -8.563579 -1.736097 -0.092250 -0.601673 0.000000 0.000000 0.000000 5.248075 12.395475 1.797772 -71.307086 6.289735 14.971989 -179.891703 -89.764257 -179.988553 -1.909312 2.637009 -0.038506 0.007733 0.273506 0.000000 0.000000 0.000000 0.000000 0.000000 0.000000 0.000000 2.783518 -4.743459 -0.156475 66.967766 7.858268 10.910147 179.708181 84.345786 179.981153 -3.325256 6.617252 -0.210168 0.068299 -0.503005 -0.000000 0.000000 0.000000 0.000000 0.000000 0.000000 0.000000 
7.307002 16.032955 1.122778 -172.033945 -89.399600 -161.002755 5.668822 -0.061683 7.544041 0.704932 -0.078126 -1.412917 -4.301464 -0.034596 -0.267555 7.502924 -11.246640 -8.571131 -1.638886 -0.084688 -0.605399 0.000000 0.000000 0.000000 4.969750 12.866832 1.853320 -71.293015 7.048936 15.224839 0.090511 -89.913526 0.011148 -1.921404 2.657014 -0.039211 0.006237 0.265211 0.000000 0.000000 0.000000 0.000000 0.000000 0.000000 0.000000 2.181600 -4.524555 -0.230877 66.563662 8.288082 11.016144 179.691717 83.827884 179.980791 -3.314497 6.582564 -0.208491 0.067241 -0.507286 -0.000000 0.000000 0.000000 0.000000 0.000000 0.000000 0.000000 
7.147723 16.055753 1.108091 -167.327402 -89.408225 -165.637068 5.448442 0.045107 7.579754 0.684328 0.056473 -1.399183 -4.204311 0.095923 -0.226420 7.309451 -11.153606 -8.588942 -1.542704 -0.077081 -0.611461 0.000000 0.000000 0.000000 4.716734 13.347097 1.905661 -71.278119 7.820047 15.446484 0.073150 -89.604412 0.010807 -1.924866 2.675564 -0.039716 0.004570 0.257163 0.000000 0.000000 0.000000 0.000000 0.000000 0.000000 0.000000 1.600958 -4.333568 -0.303566 66.131628 8.710196 11.102621 179.676786 83.340150 179.980546 -3.291305 6.536459 -0.205814 0.066023 -0.510884 -0.000000 0.000000 0.000000 0.000000 0.000000 0.000000 0.000000 
6.986423 16.076965 1.094261 -162.283322 -89.449837 -170.594103 5.230110 0.134502 7.587618 0.665547 0.173612 -1.389915 -4.106928 0.208976 -0.177290 7.124780 -11.075495 -8.616442 -1.448149 -0.069478 -0.619645 0.000000 0.000000 0.000000 4.490940 13.837743 1.954631 -71.265786 8.604204 15.635439 0.056573 -89.313025 0.010468 -1.927665 2.692842 -0.040221 0.002866 0.249342 0.000000 0.000000 0.000000 0.000000 0.000000 0.000000 0.000000 1.044439 -4.170464 -0.374763 65.674479 9.124417 11.169878 179.663143 82.881761 179.980472 -3.247756 6.476306 -0.201342 0.064476 -0.513727 -0.000000 0.000000 0.000000 0.000000 0.000000 0.000000 0.000000 
